<?xml version="1.0" encoding="UTF-8"?>
<svg width="85px" height="85px" viewBox="0 0 85 85" version="1.1" xmlns="http://www.w3.org/2000/svg" xmlns:xlink="http://www.w3.org/1999/xlink">
    <!-- Generator: Sketch 45.2 (43514) - http://www.bohemiancoding.com/sketch -->
    <title>ei-download</title>
    <desc>Created with Sketch.</desc>
    <defs></defs>
    <g id="Page-1" stroke="none" stroke-width="1" fill="none" fill-rule="evenodd">
        <g id="misc" transform="translate(-130.000000, -133.000000)" fill-rule="nonzero">
            <g id="ei-download" transform="translate(130.000000, 133.000000)">
                <path d="M42.5,85 C19,85 0,66 0,42.5 C0,19 19,0 42.5,0 C66,0 85,19 85,42.5 C85,66 66,85 42.5,85 Z" id="Shape" fill="#FFFFFF"></path>
                <g id="Group" transform="translate(25.000000, 15.000000)" stroke="#0070C9" fill="#0070C9">
                    <polygon id="Shape" points="25.6457267 12.0388358 18.2182758 4.77565689 10.7908249 12.0388358 8.82885674 10.1202603 18.2182758 0.938505747 27.6076949 10.1202603"></polygon>
                    <polygon id="Shape" points="16.81687 5.35708132 19.6196817 5.35708132 19.6196817 34.1357149 16.81687 34.1357149"></polygon>
                    <path d="M32.2323341,50.5806483 L4.2042175,50.5806483 C1.82182758,50.5806483 0,48.7991139 0,46.469415 L0,21.8020148 C0,19.4723159 1.82182758,17.6907814 4.2042175,17.6907814 L12.7923192,17.6907814 L12.7923192,20.4316037 L4.2042175,20.4316037 C3.363374,20.4316037 2.80281167,20.9797681 2.80281167,21.8020148 L2.80281167,46.469415 C2.80281167,47.2916616 3.363374,47.8398261 4.2042175,47.8398261 L32.2323341,47.8398261 C33.0731776,47.8398261 33.63374,47.2916616 33.63374,46.469415 L33.63374,21.8020148 C33.63374,20.9797681 33.0731776,20.4316037 32.2323341,20.4316037 L23.8089688,20.4316037 L23.8089688,17.6907814 L32.2323341,17.6907814 C34.6147241,17.6907814 36.4365516,19.4723159 36.4365516,21.8020148 L36.4365516,46.469415 C36.4365516,48.7991139 34.6147241,50.5806483 32.2323341,50.5806483 Z" id="Shape"></path>
                </g>
            </g>
        </g>
    </g>
</svg>