<?xml version="1.0" encoding="UTF-8"?>
<svg width="45px" height="45px" viewBox="0 0 45 45" version="1.1" xmlns="http://www.w3.org/2000/svg" xmlns:xlink="http://www.w3.org/1999/xlink">
    <!-- Generator: Sketch 45.2 (43514) - http://www.bohemiancoding.com/sketch -->
    <title>ei-download__small</title>
    <desc>Created with Sketch.</desc>
    <defs></defs>
    <g id="Page-1" stroke="none" stroke-width="1" fill="none" fill-rule="evenodd">
        <g id="misc" transform="translate(-130.000000, -133.000000)" fill-rule="nonzero">
            <g id="ei-download__small" transform="translate(130.000000, 133.000000)">
                <path d="M22.0732223,44.1464446 C9.86802879,44.1464446 0,34.2784158 0,22.0732223 C0,9.86802879 9.86802879,0 22.0732223,0 C34.2784158,0 44.1464446,9.86802879 44.1464446,22.0732223 C44.1464446,34.2784158 34.2784158,44.1464446 22.0732223,44.1464446 Z" id="Shape" fill-opacity="0.85" fill="#FFFFFF"></path>
                <g id="Group" transform="translate(13.503618, 7.790549)" stroke="#0070C9" fill="#0070C9">
                    <polygon id="Shape" points="13.3196195 6.2526094 9.46202475 2.48033261 5.60443004 6.2526094 4.58544276 5.25615892 9.46202475 0.48743167 14.3386067 5.25615892"></polygon>
                    <polygon id="Shape" points="8.73417669 2.78230698 10.1898728 2.78230698 10.1898728 17.729064 8.73417669 17.729064"></polygon>
                    <path d="M16.7405053,26.2700681 L2.18354417,26.2700681 C0.946202475,26.2700681 0,25.3447927 0,24.1348171 L0,11.323311 C0,10.1133354 0.946202475,9.18806001 2.18354417,9.18806001 L6.64394603,9.18806001 L6.64394603,10.6115607 L2.18354417,10.6115607 C1.74683534,10.6115607 1.45569612,10.8962608 1.45569612,11.323311 L1.45569612,24.1348171 C1.45569612,24.5618673 1.74683534,24.8465674 2.18354417,24.8465674 L16.7405053,24.8465674 C17.1772142,24.8465674 17.4683534,24.5618673 17.4683534,24.1348171 L17.4683534,11.323311 C17.4683534,10.8962608 17.1772142,10.6115607 16.7405053,10.6115607 L12.3656626,10.6115607 L12.3656626,9.18806001 L16.7405053,9.18806001 C17.977847,9.18806001 18.9240495,10.1133354 18.9240495,11.323311 L18.9240495,24.1348171 C18.9240495,25.3447927 17.977847,26.2700681 16.7405053,26.2700681 Z" id="Shape"></path>
                </g>
            </g>
        </g>
    </g>
</svg>