<?xml version="1.0" encoding="UTF-8"?>
<svg width="34px" height="34px" viewBox="0 0 34 34" version="1.1" xmlns="http://www.w3.org/2000/svg" xmlns:xlink="http://www.w3.org/1999/xlink">
    <!-- Generator: Sketch 45.2 (43514) - http://www.bohemiancoding.com/sketch -->
    <title>ei-download</title>
    <desc>Created with Sketch.</desc>
    <defs></defs>
    <g id="Page-1" stroke="none" stroke-width="1" fill="none" fill-rule="evenodd">
        <g id="misc" transform="translate(-132.000000, -83.000000)" fill-rule="nonzero">
            <g id="ei-download" transform="translate(132.000000, 83.000000)">
                <path d="M17,34 C7.6,34 0,26.4 0,17 C0,7.6 7.6,0 17,0 C26.4,0 34,7.6 34,17 C34,26.4 26.4,34 17,34 Z" id="Shape" fill="#0070C9"></path>
                <g id="Group" transform="translate(10.000000, 6.000000)" stroke-width="0.85" stroke="#FFFFFF" fill="#FFFFFF">
                    <polygon id="Shape" points="10.2582907 4.81553433 7.28731033 1.91026275 4.31632996 4.81553433 3.5315427 4.0481041 7.28731033 0.375402299 11.043078 4.0481041"></polygon>
                    <polygon id="Shape" points="6.726748 2.14283253 7.84787266 2.14283253 7.84787266 13.6542859 6.726748 13.6542859"></polygon>
                    <path d="M12.8929337,20.2322593 L1.681687,20.2322593 C0.728731033,20.2322593 0,19.5196455 0,18.587766 L0,8.72080591 C0,7.78892635 0.728731033,7.07631256 1.681687,7.07631256 L5.1169277,7.07631256 L5.1169277,8.17264146 L1.681687,8.17264146 C1.3453496,8.17264146 1.12112467,8.39190724 1.12112467,8.72080591 L1.12112467,18.587766 C1.12112467,18.9166647 1.3453496,19.1359304 1.681687,19.1359304 L12.8929337,19.1359304 C13.2292711,19.1359304 13.453496,18.9166647 13.453496,18.587766 L13.453496,8.72080591 C13.453496,8.39190724 13.2292711,8.17264146 12.8929337,8.17264146 L9.52358753,8.17264146 L9.52358753,7.07631256 L12.8929337,7.07631256 C13.8458896,7.07631256 14.5746207,7.78892635 14.5746207,8.72080591 L14.5746207,18.587766 C14.5746207,19.5196455 13.8458896,20.2322593 12.8929337,20.2322593 Z" id="Shape"></path>
                </g>
            </g>
        </g>
    </g>
</svg>